<svg xmlns="http://www.w3.org/2000/svg" viewBox="0 0 512 512" role="img" aria-labelledby="title desc">
  <title id="title">py-twosamplemr sticker</title>
  <desc id="desc">OmicVerse repository hex sticker for py-twosamplemr.</desc>
  <defs>
    <linearGradient id="bg" x1="112" y1="90" x2="398" y2="430" gradientUnits="userSpaceOnUse">
      <stop offset="0" stop-color="#050706"/>
      <stop offset=".58" stop-color="#020403"/>
      <stop offset="1" stop-color="#000000"/>
    </linearGradient>
  </defs>
  <polygon points="256,34 450,146 450,368 256,480 62,368 62,146" fill="#000000" opacity=".34"/>
  <polygon points="256,22 458,139 458,373 256,490 54,373 54,139" fill="url(#bg)" stroke="#0B0F0A" stroke-width="19" stroke-linejoin="round"/>
  <polygon points="256,22 458,139 458,373 256,490 54,373 54,139" fill="none" stroke="#E8FFE0" stroke-width="12" stroke-linejoin="round"/>
  <g opacity=".22" stroke="#3BCB66" stroke-width="2.2">
    <path d="M112 166h288M100 222h312M100 278h312M112 334h288"/>
    <path d="M152 126v236M204 104v274M256 96v286M308 104v274M360 126v236"/>
  </g>
  
  <g id="motif">
    <circle cx="170" cy="202" r="48" fill="#32D74B" opacity=".75" stroke="#FFFFFF" stroke-width="6"/>
    <circle cx="345" cy="202" r="48" fill="#12B5CB" opacity=".72" stroke="#FFFFFF" stroke-width="6"/>
    <path d="M218 202h78" stroke="#FFFFFF" stroke-width="10" stroke-linecap="round"/>
    <path d="M298 181l36 21-36 21z" fill="#FFFFFF"/>
    <path d="M170 264l86 63 89-63" fill="none" stroke="#FFD60A" stroke-width="9" stroke-linecap="round" stroke-linejoin="round"/>
    <circle cx="256" cy="327" r="19" fill="#FF6B6B" stroke="#FFFFFF" stroke-width="5"/>
  </g>
  <path id="label" d="M306.12,383.42 L310.55,391.10 L305.88,393.79 L294.23,373.61 L298.90,370.92 L300.13,373.06 Q300.37,371.22 301.19,369.94 Q302.01,368.65 303.54,367.77 Q306.24,366.21 309.22,367.36 Q312.19,368.50 314.14,371.88 Q316.10,375.26 315.60,378.41 Q315.11,381.56 312.40,383.12 Q310.88,384.00 309.35,384.07 Q307.83,384.14 306.12,383.42 Z M303.76,372.16 Q302.26,373.03 302.09,374.60 Q301.93,376.16 303.13,378.24 Q304.33,380.32 305.76,380.96 Q307.21,381.59 308.71,380.73 Q310.21,379.86 310.36,378.31 Q310.52,376.75 309.32,374.67 Q308.11,372.58 306.69,371.94 Q305.26,371.30 303.76,372.16 Z M311.44,363.68 L316.12,360.98 L325.77,368.63 L323.39,356.78 L328.06,354.08 L331.15,373.63 Q331.64,376.61 330.96,378.29 Q330.29,379.98 328.27,381.14 L325.56,382.70 L323.79,379.64 L325.26,378.79 Q326.44,378.11 326.76,377.42 Q327.09,376.73 326.82,375.57 L326.72,375.09 L311.44,363.68 Z M332.89,357.99 L341.09,353.26 L343.28,357.06 L335.08,361.79 L332.89,357.99 Z M353.65,353.88 L362.22,348.93 L364.35,352.62 L350.19,360.80 L348.06,357.10 L351.54,346.72 Q352.00,345.30 351.98,344.22 Q351.96,343.13 351.45,342.25 Q350.66,340.88 349.26,340.57 Q347.86,340.27 346.33,341.15 Q345.16,341.83 344.05,343.14 Q342.94,344.44 341.92,346.36 L339.45,342.08 Q340.82,340.54 342.31,339.29 Q343.80,338.03 345.39,337.11 Q348.89,335.09 351.72,335.52 Q354.55,335.93 356.14,338.69 Q357.06,340.28 357.03,342.14 Q357.00,343.98 355.70,347.82 L353.65,353.88 Z M371.79,323.16 L374.17,327.29 Q372.15,327.49 370.42,328.01 Q368.68,328.53 367.32,329.31 Q365.52,330.35 364.94,331.34 Q364.37,332.33 364.97,333.38 Q365.42,334.16 366.26,334.27 Q367.09,334.37 368.80,333.80 L371.19,332.99 Q374.81,331.77 376.95,332.31 Q379.09,332.85 380.51,335.30 Q382.37,338.52 381.37,341.20 Q380.36,343.88 376.43,346.15 Q374.58,347.22 372.51,347.94 Q370.44,348.67 368.17,349.05 L365.73,344.81 Q368.17,344.73 370.20,344.23 Q372.23,343.72 373.85,342.79 Q375.50,341.84 376.05,340.79 Q376.61,339.73 376.02,338.71 Q375.49,337.80 374.61,337.65 Q373.73,337.49 371.73,338.12 L369.54,338.82 Q366.25,339.88 364.11,339.29 Q361.97,338.70 360.63,336.38 Q358.95,333.47 359.92,330.81 Q360.90,328.16 364.42,326.13 Q366.03,325.20 367.87,324.46 Q369.70,323.73 371.79,323.16 Z M377.13,319.26 L383.52,315.57 L393.98,323.43 L392.43,310.43 L398.81,306.74 L410.06,326.23 L405.31,328.97 L397.08,314.72 L398.66,327.82 L395.47,329.66 L384.91,321.74 L393.14,336.00 L388.38,338.75 L377.13,319.26 Z M415.86,308.42 Q417.44,307.51 417.78,306.53 Q418.13,305.55 417.35,304.20 Q416.58,302.87 415.57,302.69 Q414.55,302.51 412.97,303.42 L410.86,304.64 L413.74,309.64 L415.86,308.42 Z M415.75,313.11 L420.01,320.49 L414.98,323.39 L403.73,303.90 L411.40,299.47 Q415.25,297.25 417.79,297.51 Q420.33,297.76 421.95,300.56 Q423.06,302.49 422.84,304.27 Q422.63,306.04 421.09,307.72 Q422.25,307.36 423.55,307.72 Q424.84,308.07 426.65,309.27 L432.57,313.23 L427.22,316.32 L422.05,312.85 Q420.49,311.81 419.44,311.70 Q418.40,311.58 417.17,312.29 L415.75,313.11 Z" fill="#FFFFFF"/>
</svg>
